<svg xmlns="http://www.w3.org/2000/svg" viewBox="0 0 240 340">
<defs><linearGradient id="g" x1="0" y1="0" x2="1" y2="1"><stop stop-color="#2c341f"/><stop offset=".55" stop-color="#10160d"/><stop offset="1" stop-color="#050705"/></linearGradient></defs><rect width="240" height="340" rx="22" fill="url(#g)"/><rect x="13" y="13" width="214" height="314" rx="17" fill="none" stroke="#d6d3b1" stroke-width="5" opacity=".65"/><path d="M33 60c40-28 133-28 174 0M33 280c42 28 132 28 174 0" stroke="#d6d3b1" stroke-width="3" opacity=".35" fill="none"/><g transform="translate(57 86)"><circle cx="63" cy="84" r="59" fill="#10160d" stroke="#d6d3b1" stroke-width="5" opacity=".9"/><circle cx="63" cy="84" r="14" fill="#facc15"/><path d="M63 23a61 61 0 0 1 28 8L72 70a18 18 0 0 0-18 0L35 31a61 61 0 0 1 28-8zM116 114a61 61 0 0 1-42 30l-6-43a18 18 0 0 0 10-15zM10 114a61 61 0 0 0 42 30l6-43a18 18 0 0 1-10-15z" fill="#facc15"/></g><path d="M18 42L220 300M220 42L18 300" stroke="#fff" opacity=".08" stroke-width="5"/></svg>