<svg xmlns="http://www.w3.org/2000/svg" viewBox="0 0 240 340">
<defs><linearGradient id="g" x1="0" y1="0" x2="1" y2="1"><stop stop-color="#34104b"/><stop offset="1" stop-color="#090011"/></linearGradient></defs>
<rect width="240" height="340" rx="24" fill="url(#g)"/><rect x="14" y="14" width="212" height="312" rx="18" fill="none" stroke="#d8b4fe" stroke-width="6" opacity=".9"/><path d="M0 15h260" stroke="#8b5cf6" stroke-width="12" opacity=".35" transform="rotate(45 120 170)"/><g transform="translate(61 96)"><ellipse cx="58" cy="68" rx="54" ry="50" fill="#f97316"/><ellipse cx="34" cy="68" rx="28" ry="46" fill="#fb923c" opacity=".7"/><ellipse cx="83" cy="68" rx="28" ry="46" fill="#c2410c" opacity=".55"/><path d="M42 58l-16 14h31zM76 58l-16 14h31z" fill="#111827"/><path d="M30 91h58l-10 12-9-10-9 12-9-12-10 10z" fill="#111827"/><path d="M57 18c10-12 22-18 34-18-7 13-15 23-30 30z" fill="#65a30d"/></g><path d="M36 44c32 6 59 3 80-15M186 280c-32-4-54 1-72 16" stroke="#fff" opacity=".2" stroke-width="4" fill="none"/></svg>