<svg xmlns="http://www.w3.org/2000/svg" viewBox="0 0 240 340">
<defs><linearGradient id="g" x1="0" y1="0" x2="1" y2="1"><stop stop-color="#ffe2ef"/><stop offset=".55" stop-color="#ffc3dc"/><stop offset="1" stop-color="#fff5fb"/></linearGradient></defs><rect width="240" height="340" rx="24" fill="url(#g)"/><rect x="14" y="14" width="212" height="312" rx="18" fill="none" stroke="#ef78b3" stroke-width="6" opacity=".75"/><g opacity=".28" fill="#ef78b3"><circle cx="40" cy="64" r="18"/><circle cx="92" cy="46" r="13"/><circle cx="180" cy="270" r="18"/><circle cx="198" cy="72" r="13"/></g><g transform="translate(51 85)" fill="#fff" stroke="#7c335f" stroke-width="5"><path d="M40 70L18 12l52 28M100 70l22-58-52 28"/><circle cx="70" cy="85" r="55"/></g><g fill="#111"><circle cx="55" cy="168" r="5"/><circle cx="91" cy="168" r="5"/></g><path d="M70 181h9M54 197c14 9 32 9 47 0" stroke="#7c335f" stroke-width="5" fill="none"/><g fill="#ef78b3"><path d="M144 92l28-20 20 28-28 20z"/><path d="M170 88l33-15 10 37-42 9z"/></g></svg>