<svg xmlns="http://www.w3.org/2000/svg" viewBox="0 0 240 340" shape-rendering="crispEdges">
<rect width="240" height="340" rx="18" fill="#6aa64d"/><rect x="0" y="0" width="240" height="80" fill="#4f8e3d"/><g opacity=".28"><path d="M0 0h24v24H0zM48 0h24v24H48zM96 0h24v24H96zM144 0h24v24h-24zM192 0h24v24h-24z" fill="#2e5c28"/><path d="M24 24h24v24H24zM72 24h24v24H72zM120 24h24v24h-24zM168 24h24v24h-24zM216 24h24v24h-24z" fill="#95c86b"/></g><rect x="12" y="12" width="216" height="316" rx="14" fill="none" stroke="#fff7c2" stroke-width="8"/><rect x="30" y="100" width="180" height="160" fill="#55a641"/><rect x="60" y="132" width="38" height="38" fill="#0b1a0f"/><rect x="142" y="132" width="38" height="38" fill="#0b1a0f"/><rect x="92" y="190" width="56" height="26" fill="#0b1a0f"/><rect x="76" y="216" width="26" height="36" fill="#0b1a0f"/><rect x="138" y="216" width="26" height="36" fill="#0b1a0f"/><rect x="36" y="276" width="168" height="24" fill="#8b5a2b"/></svg>