<svg xmlns="http://www.w3.org/2000/svg" viewBox="0 0 240 340">
<defs><linearGradient id="g" x1="0" y1="0" x2="1" y2="1"><stop stop-color="#16c7ed"/><stop offset=".55" stop-color="#077fb8"/><stop offset="1" stop-color="#005b8d"/></linearGradient></defs>
<rect width="240" height="340" rx="24" fill="url(#g)"/><rect x="14" y="14" width="212" height="312" rx="18" fill="none" stroke="#fff" stroke-width="7"/><rect x="25" y="25" width="190" height="290" rx="14" fill="none" stroke="#ffd84d" stroke-width="3" opacity=".75"/>
<g opacity=".5" fill="none" stroke="#fff" stroke-width="4"><circle cx="40" cy="62" r="13"/><circle cx="190" cy="76" r="18"/><circle cx="202" cy="254" r="12"/><circle cx="50" cy="260" r="17"/></g>
<g stroke="#ffd84d" stroke-width="4" fill="none" opacity=".8"><path d="M38 120c22-18 22 18 0 0zm0 0c-22-18-22 18 0 0zm0 0c-18 22 18 22 0 0zm0 0c-18-22 18-22 0 0z"/><path d="M195 170c19-16 19 16 0 0zm0 0c-19-16-19 16 0 0zm0 0c-16 19 16 19 0 0zm0 0c-16-19 16-19 0 0z"/></g>
<g transform="translate(73 92)"><path d="M47 5c-11 20-18 20-18 20s20 2 31-12c0 0-3 14 15 18 0 0-9-18-28-26z" fill="#83c43d"/><path d="M63 5c-6 18-14 23-14 23s18-1 27-15z" fill="#56a734"/><path d="M46 52c0-20 38-20 38 0v81c0 20-38 20-38 0z" fill="#ffd23f" stroke="#7b5b00" stroke-width="4"/><path d="M47 65h36M47 87h36M47 109h36M47 131h36M54 52l29 92M77 52l-30 92" stroke="#9c7000" stroke-width="3"/></g>
</svg>